<svg width="62.4" height="21.3" viewBox="0 0 62.4 21.3" xmlns="http://www.w3.org/2000/svg"><g id="svgGroup" stroke-linecap="round" fill-rule="evenodd" font-size="9pt" stroke="#ffffff" stroke-width="0mm" fill="#1b1b1d" style="stroke:#ffffff;stroke-width:0mm;fill:#1b1b1d"><path d="M 40.8 9 L 40.8 20.55 Q 33.78 21.3 27.9 21.3 A 9.941 9.941 0 0 1 26.331 21.185 Q 25.508 21.053 24.856 20.771 A 4.067 4.067 0 0 1 23.58 19.92 Q 22.2 18.54 22.2 15.6 L 22.2 6 Q 22.2 4.124 22.706 2.859 A 4.206 4.206 0 0 1 23.625 1.425 A 4.245 4.245 0 0 1 25.134 0.477 Q 26.379 0 28.2 0 L 39 0 L 39 4.2 L 29.4 4.2 A 2.591 2.591 0 0 0 28.688 4.289 Q 27.6 4.601 27.6 6 L 27.6 15.6 Q 27.6 16.29 28.005 16.695 A 1.35 1.35 0 0 0 28.711 17.064 A 1.969 1.969 0 0 0 29.1 17.1 Q 32.55 17.1 35.4 16.95 L 35.4 12.6 L 31.5 12.6 L 31.5 9 L 40.8 9 Z M 5.85 0 L 10.95 14.7 L 16.05 0 L 21.9 0 L 13.95 21 L 7.95 21 L 0 0 L 5.85 0 Z M 43.8 0 L 55.5 0 A 10.481 10.481 0 0 1 57.459 0.172 Q 59.438 0.549 60.645 1.755 Q 62.169 3.279 62.369 6.035 A 11.91 11.91 0 0 1 62.4 6.9 L 62.4 14.1 A 10.481 10.481 0 0 1 62.229 16.059 Q 61.852 18.039 60.645 19.245 Q 59.121 20.769 56.365 20.97 A 11.91 11.91 0 0 1 55.5 21 L 43.8 21 L 43.8 0 Z M 57 14.1 L 57 6.9 Q 57 4.758 55.3 4.315 A 3.978 3.978 0 0 0 54.3 4.2 L 49.2 4.2 L 49.2 16.8 L 54.3 16.8 Q 56.442 16.8 56.885 15.1 A 3.978 3.978 0 0 0 57 14.1 Z" vector-effect="non-scaling-stroke"/></g></svg>