<svg width="1155.002" height="213.004" viewBox="0 0 1155.002 213.004" xmlns="http://www.w3.org/2000/svg"><g id="svgGroup" stroke-linecap="round" fill-rule="evenodd" font-size="9pt" stroke="#ffffff" stroke-width="0mm" fill="#ffffff" style="stroke:#ffffff;stroke-width:0mm;fill:#ffffff"><path d="M 408 90.002 L 408 205.502 Q 337.8 213.002 279 213.002 A 99.41 99.41 0 0 1 263.307 211.849 Q 255.081 210.531 248.559 207.706 A 40.67 40.67 0 0 1 235.8 199.202 Q 225.185 188.587 222.735 168.741 A 104.158 104.158 0 0 1 222 156.002 L 222 60.002 A 110.269 110.269 0 0 1 223.127 43.648 Q 224.387 35.268 227.057 28.594 A 42.058 42.058 0 0 1 236.25 14.252 A 42.451 42.451 0 0 1 251.344 4.765 Q 257.955 2.235 266.194 1.049 A 111.217 111.217 0 0 1 282 0.002 L 390 0.002 L 390 42.002 L 294 42.002 A 25.913 25.913 0 0 0 286.877 42.895 Q 276 46.01 276 60.002 L 276 156.002 A 18.989 18.989 0 0 0 276.546 160.685 A 13.312 13.312 0 0 0 280.05 166.952 A 13.497 13.497 0 0 0 287.107 170.636 A 19.687 19.687 0 0 0 291 171.002 Q 325.5 171.002 354 169.502 L 354 126.002 L 315 126.002 L 315 90.002 L 408 90.002 Z M 996 207.002 L 996 168.002 A 2444.34 2444.34 0 0 0 1024.838 169.971 Q 1056.104 171.909 1078.863 172.363 A 660.204 660.204 0 0 0 1092 172.502 A 11.089 11.089 0 0 0 1095.948 171.821 A 9.965 9.965 0 0 0 1099.5 169.502 A 10.121 10.121 0 0 0 1102.497 162.291 A 13.286 13.286 0 0 0 1102.5 162.002 L 1102.5 151.502 L 1038 151.502 A 54.821 54.821 0 0 1 1023.568 149.7 A 40.336 40.336 0 0 1 1005.3 139.202 A 41.231 41.231 0 0 1 993.793 116.34 A 58.581 58.581 0 0 1 993 106.502 L 993 96.002 A 54.821 54.821 0 0 1 994.803 81.571 A 40.336 40.336 0 0 1 1005.3 63.302 A 41.231 41.231 0 0 1 1028.163 51.795 A 58.581 58.581 0 0 1 1038 51.002 L 1140 51.002 L 1140 90.002 L 1056 90.002 A 11.089 11.089 0 0 0 1052.052 90.684 A 9.965 9.965 0 0 0 1048.5 93.002 A 10.121 10.121 0 0 0 1045.503 100.214 A 13.286 13.286 0 0 0 1045.5 100.502 A 11.089 11.089 0 0 0 1046.181 104.451 A 9.965 9.965 0 0 0 1048.5 108.002 A 10.121 10.121 0 0 0 1055.712 110.999 A 13.286 13.286 0 0 0 1056 111.002 L 1110 111.002 A 54.821 54.821 0 0 1 1124.432 112.805 A 40.336 40.336 0 0 1 1142.7 123.302 A 41.231 41.231 0 0 1 1154.207 146.165 A 58.581 58.581 0 0 1 1155 156.002 L 1155 168.002 A 54.821 54.821 0 0 1 1153.197 182.434 A 40.336 40.336 0 0 1 1142.7 200.702 A 41.231 41.231 0 0 1 1119.837 212.209 A 58.581 58.581 0 0 1 1110 213.002 A 1073.294 1073.294 0 0 1 1042.388 210.774 A 1327.016 1327.016 0 0 1 996 207.002 Z M 58.5 0.002 L 109.5 147.002 L 160.5 0.002 L 219 0.002 L 139.5 210.002 L 79.5 210.002 L 0 0.002 L 58.5 0.002 Z M 798 169.502 L 798 207.002 A 1201.981 1201.981 0 0 1 742.903 211.496 A 875.053 875.053 0 0 1 693 213.002 A 54.821 54.821 0 0 1 678.568 211.2 A 40.336 40.336 0 0 1 660.3 200.702 A 41.231 41.231 0 0 1 648.793 177.84 A 58.581 58.581 0 0 1 648 168.002 L 648 96.002 Q 648 73.502 660.75 60.752 Q 673.357 48.146 695.496 48.004 A 78.838 78.838 0 0 1 696 48.002 L 756 48.002 Q 778.5 48.002 791.25 60.752 Q 803.857 73.359 803.998 95.498 A 78.838 78.838 0 0 1 804 96.002 L 804 151.502 L 700.5 151.502 L 700.5 163.502 A 11.089 11.089 0 0 0 701.181 167.451 A 9.965 9.965 0 0 0 703.5 171.002 A 10.121 10.121 0 0 0 710.712 173.999 A 13.286 13.286 0 0 0 711 174.002 Q 740.7 174.002 798 169.502 Z M 438 0.002 L 555 0.002 Q 578.886 0.002 594.654 8.715 A 52.447 52.447 0 0 1 606.45 17.552 A 55.907 55.907 0 0 1 620.144 40.814 Q 622.915 49.653 623.695 60.348 A 119.097 119.097 0 0 1 624 69.002 L 624 141.002 Q 624 164.888 615.287 180.657 A 52.447 52.447 0 0 1 606.45 192.452 A 55.907 55.907 0 0 1 583.189 206.146 Q 574.349 208.918 563.654 209.697 A 119.097 119.097 0 0 1 555 210.002 L 438 210.002 L 438 0.002 Z M 900 159.002 L 934.5 51.002 L 990 51.002 L 930 210.002 L 870 210.002 L 810 51.002 L 865.5 51.002 L 900 159.002 Z M 570 141.002 L 570 69.002 A 38.869 38.869 0 0 0 568.661 58.317 Q 565.23 46.336 552.999 43.153 A 39.779 39.779 0 0 0 543 42.002 L 492 42.002 L 492 168.002 L 543 168.002 A 38.869 38.869 0 0 0 553.685 166.664 Q 565.666 163.232 568.849 151.001 A 39.779 39.779 0 0 0 570 141.002 Z M 739.5 85.502 L 712.5 85.502 Q 702.978 85.502 701.012 93.058 A 17.679 17.679 0 0 0 700.5 97.502 L 700.5 114.002 L 751.5 114.002 L 751.5 97.502 Q 751.5 87.98 743.944 86.014 A 17.679 17.679 0 0 0 739.5 85.502 Z" vector-effect="non-scaling-stroke"/></g></svg>